<svg xmlns="http://www.w3.org/2000/svg" version="1.1" xmlns:xlink="http://www.w3.org/1999/xlink" xmlns:svgjs="http://svgjs.dev/svgjs" width="1440" height="562" preserveAspectRatio="none" viewBox="0 0 1440 562"><g mask="url(&quot;#SvgjsMask1257&quot;)" fill="none"><rect width="1440" height="562" x="0" y="0" fill="url(&quot;#SvgjsLinearGradient1258&quot;)"></rect><path d="M847 435L1247 835" stroke-width="10" stroke="url(&quot;#SvgjsLinearGradient1259&quot;)" stroke-linecap="round" class="TopLeft"></path><path d="M258 218L628 588" stroke-width="8" stroke="url(&quot;#SvgjsLinearGradient1259&quot;)" stroke-linecap="round" class="TopLeft"></path><path d="M1104 344L1372 612" stroke-width="8" stroke="url(&quot;#SvgjsLinearGradient1260&quot;)" stroke-linecap="round" class="BottomRight"></path><path d="M959 253L1349 643" stroke-width="6" stroke="url(&quot;#SvgjsLinearGradient1260&quot;)" stroke-linecap="round" class="BottomRight"></path><path d="M330 26L-34 -338" stroke-width="6" stroke="url(&quot;#SvgjsLinearGradient1260&quot;)" stroke-linecap="round" class="BottomRight"></path><path d="M283 221L-13 -75" stroke-width="6" stroke="url(&quot;#SvgjsLinearGradient1259&quot;)" stroke-linecap="round" class="TopLeft"></path><path d="M1111 471L788 148" stroke-width="10" stroke="url(&quot;#SvgjsLinearGradient1260&quot;)" stroke-linecap="round" class="BottomRight"></path><path d="M797 476L1167 846" stroke-width="10" stroke="url(&quot;#SvgjsLinearGradient1260&quot;)" stroke-linecap="round" class="BottomRight"></path><path d="M172 219L27 74" stroke-width="8" stroke="url(&quot;#SvgjsLinearGradient1259&quot;)" stroke-linecap="round" class="TopLeft"></path><path d="M18 133L353 468" stroke-width="10" stroke="url(&quot;#SvgjsLinearGradient1259&quot;)" stroke-linecap="round" class="TopLeft"></path><path d="M1302 63L1672 433" stroke-width="6" stroke="url(&quot;#SvgjsLinearGradient1260&quot;)" stroke-linecap="round" class="BottomRight"></path><path d="M16 339L-296 27" stroke-width="8" stroke="url(&quot;#SvgjsLinearGradient1259&quot;)" stroke-linecap="round" class="TopLeft"></path><path d="M368 138L576 346" stroke-width="6" stroke="url(&quot;#SvgjsLinearGradient1259&quot;)" stroke-linecap="round" class="TopLeft"></path><path d="M804 59L462 -283" stroke-width="6" stroke="url(&quot;#SvgjsLinearGradient1259&quot;)" stroke-linecap="round" class="TopLeft"></path><path d="M338 144L626 432" stroke-width="6" stroke="url(&quot;#SvgjsLinearGradient1259&quot;)" stroke-linecap="round" class="TopLeft"></path><path d="M72 90L-347 -329" stroke-width="6" stroke="url(&quot;#SvgjsLinearGradient1260&quot;)" stroke-linecap="round" class="BottomRight"></path><path d="M549 195L135 -219" stroke-width="8" stroke="url(&quot;#SvgjsLinearGradient1260&quot;)" stroke-linecap="round" class="BottomRight"></path><path d="M1362 90L1639 367" stroke-width="8" stroke="url(&quot;#SvgjsLinearGradient1260&quot;)" stroke-linecap="round" class="BottomRight"></path><path d="M857 403L620 166" stroke-width="10" stroke="url(&quot;#SvgjsLinearGradient1259&quot;)" stroke-linecap="round" class="TopLeft"></path><path d="M543 282L949 688" stroke-width="10" stroke="url(&quot;#SvgjsLinearGradient1260&quot;)" stroke-linecap="round" class="BottomRight"></path><path d="M951 9L573 -369" stroke-width="8" stroke="url(&quot;#SvgjsLinearGradient1260&quot;)" stroke-linecap="round" class="BottomRight"></path><path d="M154 492L383 721" stroke-width="10" stroke="url(&quot;#SvgjsLinearGradient1259&quot;)" stroke-linecap="round" class="TopLeft"></path><path d="M1429 485L1044 100" stroke-width="10" stroke="url(&quot;#SvgjsLinearGradient1260&quot;)" stroke-linecap="round" class="BottomRight"></path><path d="M1204 133L1551 480" stroke-width="8" stroke="url(&quot;#SvgjsLinearGradient1259&quot;)" stroke-linecap="round" class="TopLeft"></path><path d="M77 59L-314 -332" stroke-width="10" stroke="url(&quot;#SvgjsLinearGradient1259&quot;)" stroke-linecap="round" class="TopLeft"></path><path d="M572 61L187 -324" stroke-width="8" stroke="url(&quot;#SvgjsLinearGradient1260&quot;)" stroke-linecap="round" class="BottomRight"></path><path d="M709 264L335 -110" stroke-width="8" stroke="url(&quot;#SvgjsLinearGradient1260&quot;)" stroke-linecap="round" class="BottomRight"></path><path d="M309 178L-37 -168" stroke-width="6" stroke="url(&quot;#SvgjsLinearGradient1260&quot;)" stroke-linecap="round" class="BottomRight"></path><path d="M515 428L185 98" stroke-width="6" stroke="url(&quot;#SvgjsLinearGradient1260&quot;)" stroke-linecap="round" class="BottomRight"></path><path d="M936 275L1322 661" stroke-width="6" stroke="url(&quot;#SvgjsLinearGradient1260&quot;)" stroke-linecap="round" class="BottomRight"></path><path d="M1242 218L1440 416" stroke-width="6" stroke="url(&quot;#SvgjsLinearGradient1259&quot;)" stroke-linecap="round" class="TopLeft"></path><path d="M343 260L-12 -95" stroke-width="6" stroke="url(&quot;#SvgjsLinearGradient1259&quot;)" stroke-linecap="round" class="TopLeft"></path><path d="M117 58L494 435" stroke-width="10" stroke="url(&quot;#SvgjsLinearGradient1260&quot;)" stroke-linecap="round" class="BottomRight"></path><path d="M1069 27L838 -204" stroke-width="8" stroke="url(&quot;#SvgjsLinearGradient1259&quot;)" stroke-linecap="round" class="TopLeft"></path><path d="M1303 482L1140 319" stroke-width="8" stroke="url(&quot;#SvgjsLinearGradient1259&quot;)" stroke-linecap="round" class="TopLeft"></path><path d="M780 198L589 7" stroke-width="10" stroke="url(&quot;#SvgjsLinearGradient1260&quot;)" stroke-linecap="round" class="BottomRight"></path><path d="M116 222L326 432" stroke-width="8" stroke="url(&quot;#SvgjsLinearGradient1260&quot;)" stroke-linecap="round" class="BottomRight"></path><path d="M1094 208L932 46" stroke-width="10" stroke="url(&quot;#SvgjsLinearGradient1259&quot;)" stroke-linecap="round" class="TopLeft"></path><path d="M805 246L1047 488" stroke-width="6" stroke="url(&quot;#SvgjsLinearGradient1259&quot;)" stroke-linecap="round" class="TopLeft"></path></g><defs><mask id="SvgjsMask1257"><rect width="1440" height="562" fill="#ffffff"></rect></mask><linearGradient x1="15.24%" y1="-39.06%" x2="84.76%" y2="139.06%" gradientUnits="userSpaceOnUse" id="SvgjsLinearGradient1258"><stop stop-color="#0e2a47" offset="0"></stop><stop stop-color="rgba(26, 78, 145, 1)" offset="1"></stop></linearGradient><linearGradient x1="100%" y1="100%" x2="0%" y2="0%" id="SvgjsLinearGradient1259"><stop stop-color="rgba(28, 83, 142, 0)" offset="0"></stop><stop stop-color="#1c538e" offset="1"></stop></linearGradient><linearGradient x1="0%" y1="0%" x2="100%" y2="100%" id="SvgjsLinearGradient1260"><stop stop-color="rgba(28, 83, 142, 0)" offset="0"></stop><stop stop-color="#1c538e" offset="1"></stop></linearGradient></defs></svg>